<?xml version="1.0" encoding="UTF-8"?>
<svg width="700pt" height="700pt" version="1.1" viewBox="0 0 700 700" xmlns="http://www.w3.org/2000/svg">
 <path d="m333.82 363.81v-207.36c0-9.082 7.6016-16.445 16.383-16.445 9.0508 0 16.383 7.5859 16.383 16.445v206.95l64.406-64.406c6.2539-6.2539 16.734-6.3281 23.152 0.089843 6.2305 6.2266 6.457 16.781 0.089844 23.148l-91.262 91.262c-0.39062 0.5-0.81641 0.97656-1.2734 1.4336-3.2227 3.2266-7.4727 4.8086-11.699 4.7969-4.2266 0.011719-8.4766-1.5703-11.699-4.7969-0.45703-0.45703-0.88281-0.93359-1.2734-1.4336l-91.262-91.262c-6.3672-6.3672-6.1406-16.922 0.089844-23.148 6.418-6.418 16.898-6.3438 23.152-0.089843zm-263.82-83.809c0-154.64 125.36-280 280-280s280 125.36 280 280-125.36 280-280 280-280-125.36-280-280zm31.109 0c0 137.46 111.43 248.89 248.89 248.89s248.89-111.43 248.89-248.89-111.43-248.89-248.89-248.89-248.89 111.43-248.89 248.89z"/>
</svg>
