<?xml version="1.0" encoding="utf-8"?>
<!-- Generator: Adobe Illustrator 26.0.1, SVG Export Plug-In . SVG Version: 6.00 Build 0)  -->
<svg version="1.1" id="Calque_1" xmlns="http://www.w3.org/2000/svg" xmlns:xlink="http://www.w3.org/1999/xlink" x="0px" y="0px"
	 viewBox="0 0 595.3 841.9" style="enable-background:new 0 0 595.3 841.9;" xml:space="preserve">
<style type="text/css">
	.st0{fill:#E1D28D;}
	.st1{fill:#737D96;}
	.st2{opacity:8.000000e-02;}
	.st3{fill:#020203;}
</style>
<rect class="st0" width="595.3" height="841.9"/>
<g>
	<path class="st1" d="M124.4,125.5l16.4-16.4l2.6,2.6L127,128.1L124.4,125.5z"/>
	<path class="st1" d="M120.9,122l16.4-16.4l2.6,2.6l-16.4,16.4L120.9,122z"/>
	<path class="st1" d="M138.3,104.6l1.6-1.6l6.1,6.1l-1.6,1.6L138.3,104.6z"/>
	<path class="st1" d="M148.4,100.6c-1.7-1.7-4.4-1.7-6.1,0l-1.4,1.4l6.1,6.1l1.4-1.4c0.8-0.8,1.3-1.9,1.3-3
		C149.6,102.5,149.2,101.4,148.4,100.6L148.4,100.6z"/>
	<path class="st1" d="M117.7,130.4c-0.1,0.2,0,0.5,0.2,0.7c0.1,0.1,0.3,0.2,0.5,0.2c0.1,0,0.1,0,0.2,0l7.3-2.4l-5.7-5.7L117.7,130.4
		z"/>
</g>
<g>
	<path class="st1" d="M450.5,366.8l16.4-16.4l2.6,2.6l-16.4,16.4L450.5,366.8z"/>
	<path class="st1" d="M447,363.3l16.4-16.4l2.6,2.6l-16.4,16.4L447,363.3z"/>
	<path class="st1" d="M464.3,346l1.6-1.6l6.1,6.1l-1.6,1.6L464.3,346z"/>
	<path class="st1" d="M474.4,342c-1.7-1.7-4.4-1.7-6.1,0l-1.4,1.4l6.1,6.1l1.4-1.4c0.8-0.8,1.3-1.9,1.3-3S475.3,342.8,474.4,342
		L474.4,342z"/>
	<path class="st1" d="M443.8,371.8c-0.1,0.2,0,0.5,0.2,0.7c0.1,0.1,0.3,0.2,0.5,0.2c0.1,0,0.1,0,0.2,0l7.3-2.4l-5.7-5.7L443.8,371.8
		z"/>
</g>
<g>
	<path class="st1" d="M329.6,641.8l-2.7-23l3.6-0.4l2.7,23L329.6,641.8z"/>
	<path class="st1" d="M324.6,642.3l-2.7-23l3.6-0.4l2.7,23L324.6,642.3z"/>
	<path class="st1" d="M321.8,618l-0.3-2.3l8.6-1l0.3,2.3L321.8,618z"/>
	<path class="st1" d="M324.9,607.6c-2.4,0.3-4.1,2.4-3.8,4.8l0.2,2l8.6-1l-0.2-2c-0.1-1.2-0.7-2.2-1.6-2.9
		C327.2,607.8,326.1,607.4,324.9,607.6L324.9,607.6z"/>
	<path class="st1" d="M329.3,650.1c0.1,0.2,0.4,0.3,0.6,0.3c0.2,0,0.3-0.1,0.5-0.3c0-0.1,0.1-0.1,0.1-0.2l2.6-7.2l-8,0.9
		L329.3,650.1z"/>
</g>
<g>
	<path class="st1" d="M132.3,607.4l-21.6-8.4l1.3-3.4l21.6,8.4L132.3,607.4z"/>
	<path class="st1" d="M130.5,612l-21.6-8.4l1.3-3.4l21.6,8.4L130.5,612z"/>
	<path class="st1" d="M107.7,603.1l-2.1-0.8l3.1-8l2.1,0.8L107.7,603.1z"/>
	<path class="st1" d="M99.9,595.5c-0.9,2.2,0.2,4.7,2.5,5.6l1.9,0.7l3.1-8l-1.9-0.7c-1.1-0.4-2.3-0.4-3.3,0.1
		S100.3,594.4,99.9,595.5L99.9,595.5z"/>
	<path class="st1" d="M139.6,611.5c0.3,0,0.5-0.2,0.6-0.4c0.1-0.2,0.1-0.4,0-0.5c0-0.1-0.1-0.1-0.1-0.2l-5.2-5.7l-2.9,7.5
		L139.6,611.5z"/>
</g>
<g>
	<path class="st1" d="M332.1,120.4l-18.2,14.3l-2.2-2.9l18.2-14.3L332.1,120.4z"/>
	<path class="st1" d="M335.2,124.3L317,138.6l-2.2-2.9l18.2-14.3L335.2,124.3z"/>
	<path class="st1" d="M315.9,139.5l-1.8,1.4l-5.3-6.8l1.8-1.4L315.9,139.5z"/>
	<path class="st1" d="M305.4,142.3c1.5,1.9,4.2,2.2,6.1,0.7l1.6-1.3l-5.3-6.8l-1.6,1.3c-0.9,0.7-1.5,1.8-1.6,2.9
		C304.4,140.2,304.7,141.3,305.4,142.3L305.4,142.3z"/>
	<path class="st1" d="M339.4,116.3c0.1-0.2,0.1-0.5-0.1-0.7c-0.1-0.1-0.3-0.2-0.5-0.3c-0.1,0-0.1,0-0.2,0l-7.6,1.6l5,6.4
		L339.4,116.3z"/>
</g>
<g>
	<path class="st1" d="M326.3,827.9l16.4-16.4l2.6,2.6l-16.4,16.4L326.3,827.9z"/>
	<path class="st1" d="M322.8,824.4l16.4-16.4l2.6,2.6L325.4,827L322.8,824.4z"/>
	<path class="st1" d="M340.2,807.1l1.6-1.6l6.1,6.1l-1.6,1.6L340.2,807.1z"/>
	<path class="st1" d="M350.3,803c-1.7-1.7-4.4-1.7-6.1,0l-1.4,1.4l6.1,6.1l1.4-1.4c0.8-0.8,1.3-1.9,1.3-3S351.1,803.9,350.3,803
		L350.3,803z"/>
	<path class="st1" d="M319.6,832.9c-0.1,0.2,0,0.5,0.2,0.7c0.1,0.1,0.3,0.2,0.5,0.2c0.1,0,0.1,0,0.2,0l7.3-2.4l-5.7-5.7L319.6,832.9
		z"/>
</g>
<g>
	<path class="st1" d="M476.9,706.1l-11.5-20.1l3.2-1.8l11.5,20.1L476.9,706.1z"/>
	<path class="st1" d="M472.6,708.6l-11.5-20.1l3.2-1.8l11.5,20.1L472.6,708.6z"/>
	<path class="st1" d="M460.4,687.2l-1.1-2l7.5-4.3l1.1,2L460.4,687.2z"/>
	<path class="st1" d="M459.2,676.4c-2.1,1.2-2.8,3.8-1.6,5.9l1,1.8l7.5-4.3l-1-1.8c-0.6-1-1.5-1.7-2.6-2
		C461.4,675.7,460.3,675.8,459.2,676.4L459.2,676.4z"/>
	<path class="st1" d="M479.9,713.9c0.2,0.1,0.5,0.2,0.7,0c0.2-0.1,0.3-0.2,0.3-0.4c0-0.1,0-0.1,0-0.2l-0.4-7.7l-7,4L479.9,713.9z"/>
</g>
<g>
	<path class="st1" d="M170.8,772.3l-7.2-22l3.5-1.1l7.2,22L170.8,772.3z"/>
	<path class="st1" d="M166.1,773.8l-7.2-22l3.5-1.1l7.2,22L166.1,773.8z"/>
	<path class="st1" d="M158.4,750.5l-0.7-2.2l8.2-2.7l0.7,2.2L158.4,750.5z"/>
	<path class="st1" d="M159.4,739.7c-2.3,0.7-3.5,3.2-2.7,5.4l0.6,1.9l8.2-2.7l-0.6-1.9c-0.4-1.1-1.2-2-2.2-2.5
		S160.5,739.3,159.4,739.7L159.4,739.7z"/>
	<path class="st1" d="M172.2,780.5c0.2,0.2,0.4,0.2,0.7,0.2c0.2-0.1,0.3-0.2,0.4-0.3c0-0.1,0.1-0.1,0.1-0.2l1.1-7.6l-7.7,2.5
		L172.2,780.5z"/>
</g>
<g>
	<path class="st1" d="M530.7,518.5l-6.6-22.2l3.5-1l6.6,22.2L530.7,518.5z"/>
	<path class="st1" d="M526,519.9l-6.6-22.2l3.5-1l6.6,22.2L526,519.9z"/>
	<path class="st1" d="M519,496.4l-0.7-2.2l8.3-2.5l0.7,2.2L519,496.4z"/>
	<path class="st1" d="M520.3,485.6c-2.3,0.7-3.6,3.1-2.9,5.4l0.6,2l8.3-2.5l-0.6-2c-0.3-1.1-1.1-2-2.1-2.6
		C522.6,485.4,521.4,485.3,520.3,485.6L520.3,485.6z"/>
	<path class="st1" d="M531.9,526.8c0.2,0.2,0.4,0.3,0.7,0.2c0.2-0.1,0.3-0.2,0.4-0.3c0-0.1,0.1-0.1,0.1-0.2l1.3-7.6l-7.8,2.3
		L531.9,526.8z"/>
</g>
<g>
	<path class="st1" d="M65.1,468.5l23.2,0.3l0,3.6l-23.2-0.3L65.1,468.5z"/>
	<path class="st1" d="M65.2,463.5l23.2,0.3l0,3.6l-23.2-0.3L65.2,463.5z"/>
	<path class="st1" d="M89.7,463.9l2.3,0l-0.1,8.6l-2.3,0L89.7,463.9z"/>
	<path class="st1" d="M99.6,468.3c0-2.4-1.9-4.3-4.3-4.4l-2,0l-0.1,8.6l2,0c1.2,0,2.3-0.5,3.1-1.2S99.6,469.5,99.6,468.3L99.6,468.3
		z"/>
	<path class="st1" d="M56.9,467.1c-0.2,0.1-0.4,0.3-0.4,0.6c0,0.2,0.1,0.4,0.2,0.5c0,0,0.1,0.1,0.2,0.1l6.8,3.5l0.1-8.1L56.9,467.1z
		"/>
</g>
<g>
	<path class="st1" d="M484.3,167.2l-17.8-14.8l2.3-2.8l17.8,14.8L484.3,167.2z"/>
	<path class="st1" d="M481.1,171l-17.8-14.8l2.3-2.8l17.8,14.8L481.1,171z"/>
	<path class="st1" d="M462.2,155.3l-1.8-1.5l5.5-6.6l1.8,1.5L462.2,155.3z"/>
	<path class="st1" d="M457.3,145.6c-1.5,1.8-1.3,4.6,0.6,6.1l1.6,1.3l5.5-6.6l-1.6-1.3c-0.9-0.8-2-1.1-3.1-1
		S458.1,144.7,457.3,145.6L457.3,145.6z"/>
	<path class="st1" d="M489.8,173.4c0.2,0.1,0.5,0,0.7-0.2c0.1-0.1,0.2-0.3,0.2-0.5c0-0.1,0-0.1-0.1-0.2l-3.1-7.1l-5.2,6.2
		L489.8,173.4z"/>
</g>
<g>
	<path class="st1" d="M149.5,282l20.1,11.6l-1.8,3.1l-20.1-11.6L149.5,282z"/>
	<path class="st1" d="M152,277.7l20.1,11.6l-1.8,3.1l-20.1-11.6L152,277.7z"/>
	<path class="st1" d="M173.3,290l2,1.1l-4.3,7.5l-2-1.1L173.3,290z"/>
	<path class="st1" d="M179.8,298.7c1.2-2.1,0.5-4.7-1.6-5.9l-1.8-1l-4.3,7.5l1.8,1c1,0.6,2.2,0.7,3.3,0.4
		C178.2,300.4,179.2,299.7,179.8,298.7L179.8,298.7z"/>
	<path class="st1" d="M143,276.8c-0.3,0-0.5,0.1-0.6,0.3c-0.1,0.2-0.1,0.3-0.1,0.5c0,0.1,0,0.1,0.1,0.2l4.3,6.4l4-7L143,276.8z"/>
</g>
<g>
	<path class="st1" d="M333,247.6l-20.7,10.5l-1.6-3.2l20.7-10.5L333,247.6z"/>
	<path class="st1" d="M335.3,252.1l-20.7,10.5l-1.6-3.2l20.7-10.5L335.3,252.1z"/>
	<path class="st1" d="M313.4,263.2l-2,1l-3.9-7.7l2-1L313.4,263.2z"/>
	<path class="st1" d="M302.5,263.9c1.1,2.1,3.7,3,5.8,1.9l1.8-0.9l-3.9-7.7l-1.8,0.9c-1.1,0.5-1.8,1.5-2.1,2.5
		C301.9,261.7,302,262.9,302.5,263.9L302.5,263.9z"/>
	<path class="st1" d="M340.9,245c0.2-0.2,0.2-0.5,0.1-0.7c-0.1-0.2-0.2-0.3-0.4-0.3c-0.1,0-0.1,0-0.2,0l-7.7,0.1l3.7,7.2L340.9,245z
		"/>
</g>
<g>
	<path class="st1" d="M34.2,257.9l16.4-16.4l2.6,2.6l-16.4,16.4L34.2,257.9z"/>
	<path class="st1" d="M30.7,254.4L47.1,238l2.6,2.6l-16.4,16.4L30.7,254.4z"/>
	<path class="st1" d="M48,237l1.6-1.6l6.1,6.1l-1.6,1.6L48,237z"/>
	<path class="st1" d="M58.2,233c-1.7-1.7-4.4-1.7-6.1,0l-1.4,1.4l6.1,6.1l1.4-1.4c0.8-0.8,1.3-1.9,1.3-3C59.4,235,59,233.8,58.2,233
		L58.2,233z"/>
	<path class="st1" d="M27.5,262.8c-0.1,0.2,0,0.5,0.2,0.7c0.1,0.1,0.3,0.2,0.5,0.2c0.1,0,0.1,0,0.2,0l7.3-2.4l-5.7-5.7L27.5,262.8z"
		/>
</g>
<g>
	<path class="st1" d="M564.5,19.5l-18.6,13.9l-2.2-2.9l18.6-13.9L564.5,19.5z"/>
	<path class="st1" d="M567.5,23.5l-18.6,13.9l-2.2-2.9l18.6-13.9L567.5,23.5z"/>
	<path class="st1" d="M547.8,38.2l-1.8,1.4l-5.2-6.9l1.8-1.4L547.8,38.2z"/>
	<path class="st1" d="M537.3,40.7c1.4,1.9,4.1,2.3,6,0.9l1.6-1.2l-5.2-6.9l-1.6,1.2c-0.9,0.7-1.5,1.7-1.7,2.8
		C536.3,38.6,536.6,39.7,537.3,40.7L537.3,40.7z"/>
	<path class="st1" d="M571.9,15.6c0.1-0.2,0.1-0.5-0.1-0.7c-0.1-0.1-0.3-0.2-0.4-0.3c-0.1,0-0.1,0-0.2,0l-7.6,1.4l4.8,6.5
		L571.9,15.6z"/>
</g>
<g>
	<path class="st1" d="M259.8,59.1l16.4-16.4l2.6,2.6l-16.4,16.4L259.8,59.1z"/>
	<path class="st1" d="M256.3,55.6l16.4-16.4l2.6,2.6l-16.4,16.4L256.3,55.6z"/>
	<path class="st1" d="M273.6,38.3l1.6-1.6l6.1,6.1l-1.6,1.6L273.6,38.3z"/>
	<path class="st1" d="M283.8,34.2c-1.7-1.7-4.4-1.7-6.1,0l-1.4,1.4l6.1,6.1l1.4-1.4c0.8-0.8,1.3-1.9,1.3-3
		C285,36.2,284.6,35.1,283.8,34.2L283.8,34.2z"/>
	<path class="st1" d="M253.1,64.1c-0.1,0.2,0,0.5,0.2,0.7c0.1,0.1,0.3,0.2,0.5,0.2c0.1,0,0.1,0,0.2,0l7.3-2.4l-5.7-5.7L253.1,64.1z"
		/>
</g>
<g>
	<path class="st1" d="M577.5,804.2l-16.4-16.4l2.6-2.6l16.4,16.4L577.5,804.2z"/>
	<path class="st1" d="M574,807.7l-16.4-16.4l2.6-2.6l16.4,16.4L574,807.7z"/>
	<path class="st1" d="M556.7,790.4l-1.6-1.6l6.1-6.1l1.6,1.6L556.7,790.4z"/>
	<path class="st1" d="M552.6,780.3c-1.7,1.7-1.7,4.4,0,6.1l1.4,1.4l6.1-6.1l-1.4-1.4c-0.8-0.8-1.9-1.3-3-1.3
		S553.5,779.4,552.6,780.3L552.6,780.3z"/>
	<path class="st1" d="M582.5,810.9c0.2,0.1,0.5,0,0.7-0.2c0.1-0.1,0.2-0.3,0.2-0.5c0-0.1,0-0.1,0-0.2l-2.4-7.3l-5.7,5.7L582.5,810.9
		z"/>
</g>
<g>
	<path class="st1" d="M15.2,725.8l16.4-16.4l2.6,2.6l-16.4,16.4L15.2,725.8z"/>
	<path class="st1" d="M11.7,722.2l16.4-16.4l2.6,2.6l-16.4,16.4L11.7,722.2z"/>
	<path class="st1" d="M29.1,704.9l1.6-1.6l6.1,6.1l-1.6,1.6L29.1,704.9z"/>
	<path class="st1" d="M39.2,700.9c-1.7-1.7-4.4-1.7-6.1,0l-1.4,1.4l6.1,6.1l1.4-1.4c0.8-0.8,1.3-1.9,1.3-3S40,701.7,39.2,700.9
		L39.2,700.9z"/>
	<path class="st1" d="M8.5,730.7c-0.1,0.2,0,0.5,0.2,0.7c0.1,0.1,0.3,0.2,0.5,0.2c0.1,0,0.1,0,0.2,0l7.3-2.4l-5.7-5.7L8.5,730.7z"/>
</g>
<g>
	<path class="st1" d="M310.5,477.6l16.4-16.4l2.6,2.6l-16.4,16.4L310.5,477.6z"/>
	<path class="st1" d="M307,474.1l16.4-16.4l2.6,2.6l-16.4,16.4L307,474.1z"/>
	<path class="st1" d="M324.3,456.8l1.6-1.6l6.1,6.1l-1.6,1.6L324.3,456.8z"/>
	<path class="st1" d="M334.4,452.7c-1.7-1.7-4.4-1.7-6.1,0l-1.4,1.4l6.1,6.1l1.4-1.4c0.8-0.8,1.3-1.9,1.3-3
		C335.7,454.7,335.3,453.6,334.4,452.7L334.4,452.7z"/>
	<path class="st1" d="M303.8,482.6c-0.1,0.2,0,0.5,0.2,0.7c0.1,0.1,0.3,0.2,0.5,0.2c0.1,0,0.1,0,0.2,0l7.3-2.4l-5.7-5.7L303.8,482.6
		z"/>
</g>
<g>
	<path class="st1" d="M207.1,411.3l6.4-22.3l3.5,1l-6.4,22.3L207.1,411.3z"/>
	<path class="st1" d="M202.3,410l6.4-22.3l3.5,1l-6.4,22.3L202.3,410z"/>
	<path class="st1" d="M209.1,386.4l0.6-2.2l8.3,2.4l-0.6,2.2L209.1,386.4z"/>
	<path class="st1" d="M216,378c-2.3-0.7-4.7,0.7-5.3,2.9l-0.6,2l8.3,2.4l0.6-2c0.3-1.1,0.2-2.3-0.4-3.3
		C218,379.1,217.1,378.3,216,378L216,378z"/>
	<path class="st1" d="M203.6,418.9c0,0.3,0.2,0.5,0.5,0.5c0.2,0.1,0.4,0,0.5-0.1c0.1,0,0.1-0.1,0.2-0.1l5.2-5.7l-7.8-2.2
		L203.6,418.9z"/>
</g>
<g>
	<path class="st1" d="M70,42.7l-9.3,21.3l-3.3-1.5l9.3-21.3L70,42.7z"/>
	<path class="st1" d="M74.5,44.7l-9.3,21.3L62,64.5l9.3-21.3L74.5,44.7z"/>
	<path class="st1" d="M64.7,67.1l-0.9,2.1l-7.9-3.4l0.9-2.1L64.7,67.1z"/>
	<path class="st1" d="M56.8,74.6c2.2,0.9,4.7-0.1,5.7-2.2l0.8-1.9L55.4,67l-0.8,1.9c-0.5,1.1-0.5,2.3-0.1,3.3S55.7,74.1,56.8,74.6
		L56.8,74.6z"/>
	<path class="st1" d="M74.4,35.6c0-0.3-0.2-0.5-0.4-0.6c-0.2-0.1-0.4-0.1-0.5,0c-0.1,0-0.1,0.1-0.2,0.1l-5.9,4.9l7.4,3.2L74.4,35.6z
		"/>
</g>
<g class="st2">
	<path class="st3" d="M174.1,772.5l-7.2-22l3.5-1.1l7.2,22L174.1,772.5z"/>
	<path class="st3" d="M169.4,774.1l-7.2-22l3.5-1.1l7.2,22L169.4,774.1z"/>
	<path class="st3" d="M161.7,750.8l-0.7-2.2l8.2-2.7l0.7,2.2L161.7,750.8z"/>
	<path class="st3" d="M162.7,739.9c-2.3,0.7-3.5,3.2-2.7,5.4l0.6,1.9l8.2-2.7l-0.6-1.9c-0.4-1.1-1.2-2-2.2-2.5
		S163.8,739.5,162.7,739.9L162.7,739.9z"/>
	<path class="st3" d="M175.5,780.7c0.2,0.2,0.4,0.2,0.7,0.2c0.2-0.1,0.3-0.2,0.4-0.3c0-0.1,0.1-0.1,0.1-0.2l1.1-7.6l-7.7,2.5
		L175.5,780.7z"/>
</g>
<g class="st2">
	<path class="st3" d="M128.5,610.6l-21.6-8.4l1.3-3.4l21.6,8.4L128.5,610.6z"/>
	<path class="st3" d="M126.7,615.2l-21.6-8.4l1.3-3.4l21.6,8.4L126.7,615.2z"/>
	<path class="st3" d="M103.8,606.3l-2.1-0.8l3.1-8l2.1,0.8L103.8,606.3z"/>
	<path class="st3" d="M96.1,598.7c-0.9,2.2,0.2,4.7,2.5,5.6l1.9,0.7l3.1-8l-1.9-0.7c-1.1-0.4-2.3-0.4-3.3,0.1
		C97.3,596.8,96.5,597.6,96.1,598.7L96.1,598.7z"/>
	<path class="st3" d="M135.7,614.7c0.3,0,0.5-0.2,0.6-0.4c0.1-0.2,0.1-0.4,0-0.5c0-0.1-0.1-0.1-0.1-0.2l-5.2-5.7l-2.9,7.5
		L135.7,614.7z"/>
</g>
<g class="st2">
	<path class="st3" d="M22.4,725.5l16.4-16.4l2.6,2.6L25,728.1L22.4,725.5z"/>
	<path class="st3" d="M18.9,722l16.4-16.4l2.6,2.6l-16.4,16.4L18.9,722z"/>
	<path class="st3" d="M36.2,704.6l1.6-1.6l6.1,6.1l-1.6,1.6L36.2,704.6z"/>
	<path class="st3" d="M46.3,700.6c-1.7-1.7-4.4-1.7-6.1,0l-1.4,1.4l6.1,6.1l1.4-1.4c0.8-0.8,1.3-1.9,1.3-3
		C47.6,702.6,47.2,701.4,46.3,700.6L46.3,700.6z"/>
	<path class="st3" d="M15.7,730.4c-0.1,0.2,0,0.5,0.2,0.7c0.1,0.1,0.3,0.2,0.5,0.2c0.1,0,0.1,0,0.2,0l7.3-2.4l-5.7-5.7L15.7,730.4z"
		/>
</g>
<g class="st2">
	<path class="st3" d="M324.4,638.8l-2.7-23l3.6-0.4l2.7,23L324.4,638.8z"/>
	<path class="st3" d="M319.4,639.4l-2.7-23l3.6-0.4l2.7,23L319.4,639.4z"/>
	<path class="st3" d="M316.6,615l-0.3-2.3l8.6-1l0.3,2.3L316.6,615z"/>
	<path class="st3" d="M319.8,604.6c-2.4,0.3-4.1,2.4-3.8,4.8l0.2,2l8.6-1l-0.2-2c-0.1-1.2-0.7-2.2-1.6-2.9
		C322.1,604.8,320.9,604.5,319.8,604.6L319.8,604.6z"/>
	<path class="st3" d="M324.1,647.2c0.1,0.2,0.4,0.3,0.6,0.3c0.2,0,0.3-0.1,0.5-0.3c0-0.1,0.1-0.1,0.1-0.2l2.6-7.2l-8,0.9
		L324.1,647.2z"/>
</g>
<g class="st2">
	<path class="st3" d="M471.7,705.8l-11.5-20.1l3.2-1.8l11.5,20.1L471.7,705.8z"/>
	<path class="st3" d="M467.4,708.3l-11.5-20.1l3.2-1.8l11.5,20.1L467.4,708.3z"/>
	<path class="st3" d="M455.3,687l-1.1-2l7.5-4.3l1.1,2L455.3,687z"/>
	<path class="st3" d="M454.1,676.2c-2.1,1.2-2.8,3.8-1.6,5.9l1,1.8l7.5-4.3l-1-1.8c-0.6-1-1.5-1.7-2.6-2
		C456.3,675.5,455.1,675.6,454.1,676.2L454.1,676.2z"/>
	<path class="st3" d="M474.7,713.6c0.2,0.1,0.5,0.2,0.7,0c0.2-0.1,0.3-0.2,0.3-0.4c0-0.1,0-0.1,0-0.2l-0.4-7.7l-7,4L474.7,713.6z"/>
</g>
<g class="st2">
	<path class="st3" d="M572.9,803.9l-16.4-16.4l2.6-2.6l16.4,16.4L572.9,803.9z"/>
	<path class="st3" d="M569.4,807.5L553,791.1l2.6-2.6l16.4,16.4L569.4,807.5z"/>
	<path class="st3" d="M552.1,790.1l-1.6-1.6l6.1-6.1l1.6,1.6L552.1,790.1z"/>
	<path class="st3" d="M548,780c-1.7,1.7-1.7,4.4,0,6.1l1.4,1.4l6.1-6.1l-1.4-1.4c-0.8-0.8-1.9-1.3-3-1.3S548.9,779.2,548,780
		L548,780z"/>
	<path class="st3" d="M577.8,810.7c0.2,0.1,0.5,0,0.7-0.2c0.1-0.1,0.2-0.3,0.2-0.5c0-0.1,0-0.1,0-0.2l-2.4-7.3l-5.7,5.7L577.8,810.7
		z"/>
</g>
<g class="st2">
	<path class="st3" d="M332.6,827.7l16.4-16.4l2.6,2.6l-16.4,16.4L332.6,827.7z"/>
	<path class="st3" d="M329,824.1l16.4-16.4l2.6,2.6l-16.4,16.4L329,824.1z"/>
	<path class="st3" d="M346.4,806.8l1.6-1.6l6.1,6.1l-1.6,1.6L346.4,806.8z"/>
	<path class="st3" d="M356.5,802.8c-1.7-1.7-4.4-1.7-6.1,0l-1.4,1.4l6.1,6.1l1.4-1.4c0.8-0.8,1.3-1.9,1.3-3
		C357.8,804.7,357.3,803.6,356.5,802.8L356.5,802.8z"/>
	<path class="st3" d="M325.8,832.6c-0.1,0.2,0,0.5,0.2,0.7c0.1,0.1,0.3,0.2,0.5,0.2c0.1,0,0.1,0,0.2,0l7.3-2.4l-5.7-5.7L325.8,832.6
		z"/>
</g>
<g class="st2">
	<path class="st3" d="M314.6,477.6l16.4-16.4l2.6,2.6l-16.4,16.4L314.6,477.6z"/>
	<path class="st3" d="M311,474.1l16.4-16.4l2.6,2.6l-16.4,16.4L311,474.1z"/>
	<path class="st3" d="M328.4,456.8l1.6-1.6l6.1,6.1l-1.6,1.6L328.4,456.8z"/>
	<path class="st3" d="M338.5,452.7c-1.7-1.7-4.4-1.7-6.1,0l-1.4,1.4l6.1,6.1l1.4-1.4c0.8-0.8,1.3-1.9,1.3-3
		C339.8,454.7,339.3,453.6,338.5,452.7L338.5,452.7z"/>
	<path class="st3" d="M307.8,482.6c-0.1,0.2,0,0.5,0.2,0.7c0.1,0.1,0.3,0.2,0.5,0.2c0.1,0,0.1,0,0.2,0l7.3-2.4l-5.7-5.7L307.8,482.6
		z"/>
</g>
<g class="st2">
	<path class="st3" d="M526.7,515.7l-6.6-22.2l3.5-1l6.6,22.2L526.7,515.7z"/>
	<path class="st3" d="M521.9,517.1l-6.6-22.2l3.5-1l6.6,22.2L521.9,517.1z"/>
	<path class="st3" d="M514.9,493.6l-0.7-2.2l8.3-2.5l0.7,2.2L514.9,493.6z"/>
	<path class="st3" d="M516.2,482.8c-2.3,0.7-3.6,3.1-2.9,5.4l0.6,2l8.3-2.5l-0.6-2c-0.3-1.1-1.1-2-2.1-2.6
		C518.5,482.6,517.3,482.5,516.2,482.8L516.2,482.8z"/>
	<path class="st3" d="M527.8,524c0.2,0.2,0.4,0.3,0.7,0.2c0.2-0.1,0.3-0.2,0.4-0.3c0-0.1,0.1-0.1,0.1-0.2l1.3-7.6l-7.8,2.3
		L527.8,524z"/>
</g>
<g class="st2">
	<path class="st3" d="M457.6,366.8l16.4-16.4l2.6,2.6l-16.4,16.4L457.6,366.8z"/>
	<path class="st3" d="M454,363.3l16.4-16.4l2.6,2.6l-16.4,16.4L454,363.3z"/>
	<path class="st3" d="M471.4,346l1.6-1.6l6.1,6.1l-1.6,1.6L471.4,346z"/>
	<path class="st3" d="M481.5,342c-1.7-1.7-4.4-1.7-6.1,0l-1.4,1.4l6.1,6.1l1.4-1.4c0.8-0.8,1.3-1.9,1.3-3S482.3,342.8,481.5,342
		L481.5,342z"/>
	<path class="st3" d="M450.8,371.8c-0.1,0.2,0,0.5,0.2,0.7c0.1,0.1,0.3,0.2,0.5,0.2c0.1,0,0.1,0,0.2,0l7.3-2.4l-5.7-5.7L450.8,371.8
		z"/>
</g>
<g class="st2">
	<path class="st3" d="M69.8,472l23.2,0.3l0,3.6l-23.2-0.3L69.8,472z"/>
	<path class="st3" d="M69.8,467l23.2,0.3l0,3.6l-23.2-0.3L69.8,467z"/>
	<path class="st3" d="M94.4,467.4l2.3,0l-0.1,8.6l-2.3,0L94.4,467.4z"/>
	<path class="st3" d="M104.3,471.8c0-2.4-1.9-4.3-4.3-4.4l-2,0l-0.1,8.6l2,0c1.2,0,2.3-0.5,3.1-1.2
		C103.8,474.1,104.3,473,104.3,471.8L104.3,471.8z"/>
	<path class="st3" d="M61.5,470.6c-0.2,0.1-0.4,0.3-0.4,0.6c0,0.2,0.1,0.4,0.2,0.5c0,0,0.1,0.1,0.2,0.1l6.8,3.5l0.1-8.1L61.5,470.6z
		"/>
</g>
<g class="st2">
	<path class="st3" d="M212.3,409.2l6.4-22.3l3.5,1l-6.4,22.3L212.3,409.2z"/>
	<path class="st3" d="M207.5,407.8l6.4-22.3l3.5,1l-6.4,22.3L207.5,407.8z"/>
	<path class="st3" d="M214.3,384.2l0.6-2.2l8.3,2.4l-0.6,2.2L214.3,384.2z"/>
	<path class="st3" d="M221.2,375.8c-2.3-0.7-4.7,0.7-5.3,2.9l-0.6,2l8.3,2.4l0.6-2c0.3-1.1,0.2-2.3-0.4-3.3
		C223.2,376.9,222.3,376.1,221.2,375.8L221.2,375.8z"/>
	<path class="st3" d="M208.8,416.7c0,0.3,0.2,0.5,0.5,0.5c0.2,0.1,0.4,0,0.5-0.1c0.1,0,0.1-0.1,0.2-0.1l5.2-5.7l-7.8-2.2
		L208.8,416.7z"/>
</g>
<g class="st2">
	<path class="st3" d="M149.4,286.5l20.1,11.6l-1.8,3.1l-20.1-11.6L149.4,286.5z"/>
	<path class="st3" d="M151.8,282.2l20.1,11.6l-1.8,3.1L150,285.3L151.8,282.2z"/>
	<path class="st3" d="M173.1,294.5l2,1.1l-4.3,7.5l-2-1.1L173.1,294.5z"/>
	<path class="st3" d="M179.6,303.2c1.2-2.1,0.5-4.7-1.6-5.9l-1.8-1l-4.3,7.5l1.8,1c1,0.6,2.2,0.7,3.3,0.4
		C178,304.9,179,304.2,179.6,303.2L179.6,303.2z"/>
	<path class="st3" d="M142.8,281.3c-0.3,0-0.5,0.1-0.6,0.3c-0.1,0.2-0.1,0.3-0.1,0.5c0,0.1,0,0.1,0.1,0.2l4.3,6.4l4-7L142.8,281.3z"
		/>
</g>
<g class="st2">
	<path class="st3" d="M331.4,252.4l-20.7,10.5l-1.6-3.2l20.7-10.5L331.4,252.4z"/>
	<path class="st3" d="M333.7,256.9L313,267.4l-1.6-3.2l20.7-10.5L333.7,256.9z"/>
	<path class="st3" d="M311.8,268l-2,1l-3.9-7.7l2-1L311.8,268z"/>
	<path class="st3" d="M301,268.7c1.1,2.1,3.7,3,5.8,1.9l1.8-0.9l-3.9-7.7l-1.8,0.9c-1.1,0.5-1.8,1.5-2.1,2.5
		C300.4,266.5,300.4,267.6,301,268.7L301,268.7z"/>
	<path class="st3" d="M339.3,249.8c0.2-0.2,0.2-0.5,0.1-0.7c-0.1-0.2-0.2-0.3-0.4-0.3c-0.1,0-0.1,0-0.2,0l-7.7,0.1l3.7,7.2
		L339.3,249.8z"/>
</g>
<g class="st2">
	<path class="st3" d="M40.4,257.6l16.4-16.4l2.6,2.6L43,260.2L40.4,257.6z"/>
	<path class="st3" d="M36.9,254.1l16.4-16.4l2.6,2.6l-16.4,16.4L36.9,254.1z"/>
	<path class="st3" d="M54.3,236.8l1.6-1.6l6.1,6.1l-1.6,1.6L54.3,236.8z"/>
	<path class="st3" d="M64.4,232.7c-1.7-1.7-4.4-1.7-6.1,0l-1.4,1.4l6.1,6.1l1.4-1.4c0.8-0.8,1.3-1.9,1.3-3S65.2,233.6,64.4,232.7
		L64.4,232.7z"/>
	<path class="st3" d="M33.7,262.6c-0.1,0.2,0,0.5,0.2,0.7c0.1,0.1,0.3,0.2,0.5,0.2c0.1,0,0.1,0,0.2,0l7.3-2.4l-5.7-5.7L33.7,262.6z"
		/>
</g>
<g class="st2">
	<path class="st3" d="M129,125.5l16.4-16.4l2.6,2.6l-16.4,16.4L129,125.5z"/>
	<path class="st3" d="M125.5,122l16.4-16.4l2.6,2.6l-16.4,16.4L125.5,122z"/>
	<path class="st3" d="M142.9,104.6l1.6-1.6l6.1,6.1l-1.6,1.6L142.9,104.6z"/>
	<path class="st3" d="M153,100.6c-1.7-1.7-4.4-1.7-6.1,0l-1.4,1.4l6.1,6.1l1.4-1.4c0.8-0.8,1.3-1.9,1.3-3
		C154.2,102.5,153.8,101.4,153,100.6L153,100.6z"/>
	<path class="st3" d="M122.3,130.4c-0.1,0.2,0,0.5,0.2,0.7c0.1,0.1,0.3,0.2,0.5,0.2c0.1,0,0.1,0,0.2,0l7.3-2.4l-5.7-5.7L122.3,130.4
		z"/>
</g>
<g class="st2">
	<path class="st3" d="M332,125.7l-18.2,14.3l-2.2-2.9l18.2-14.3L332,125.7z"/>
	<path class="st3" d="M335.1,129.6L316.9,144l-2.2-2.9l18.2-14.3L335.1,129.6z"/>
	<path class="st3" d="M315.8,144.8l-1.8,1.4l-5.3-6.8l1.8-1.4L315.8,144.8z"/>
	<path class="st3" d="M305.3,147.6c1.5,1.9,4.2,2.2,6.1,0.7l1.6-1.3l-5.3-6.8l-1.6,1.3c-0.9,0.7-1.5,1.8-1.6,2.9
		S304.5,146.7,305.3,147.6L305.3,147.6z"/>
	<path class="st3" d="M339.3,121.6c0.1-0.2,0.1-0.5-0.1-0.7c-0.1-0.1-0.3-0.2-0.5-0.3c-0.1,0-0.1,0-0.2,0l-7.6,1.6l5,6.4
		L339.3,121.6z"/>
</g>
<g class="st2">
	<path class="st3" d="M72.9,48.9l-9.3,21.3l-3.3-1.5l9.3-21.3L72.9,48.9z"/>
	<path class="st3" d="M77.4,50.9l-9.3,21.3l-3.3-1.5l9.3-21.3L77.4,50.9z"/>
	<path class="st3" d="M67.6,73.4l-0.9,2.1L58.8,72l0.9-2.1L67.6,73.4z"/>
	<path class="st3" d="M59.7,80.8c2.2,0.9,4.7-0.1,5.7-2.2l0.8-1.9l-7.9-3.4l-0.8,1.9c-0.5,1.1-0.5,2.3-0.1,3.3
		C57.8,79.5,58.6,80.4,59.7,80.8L59.7,80.8z"/>
	<path class="st3" d="M77.3,41.9c0-0.3-0.2-0.5-0.4-0.6c-0.2-0.1-0.4-0.1-0.5,0c-0.1,0-0.1,0.1-0.2,0.1l-5.9,4.9l7.4,3.2L77.3,41.9z
		"/>
</g>
<g class="st2">
	<path class="st3" d="M484.2,161.4l-17.8-14.8l2.3-2.8l17.8,14.8L484.2,161.4z"/>
	<path class="st3" d="M481,165.3l-17.8-14.8l2.3-2.8l17.8,14.8L481,165.3z"/>
	<path class="st3" d="M462.1,149.6l-1.8-1.5l5.5-6.6l1.8,1.5L462.1,149.6z"/>
	<path class="st3" d="M457.2,139.9c-1.5,1.8-1.3,4.6,0.6,6.1l1.6,1.3l5.5-6.6l-1.6-1.3c-0.9-0.8-2-1.1-3.1-1S457.9,139,457.2,139.9
		L457.2,139.9z"/>
	<path class="st3" d="M489.7,167.7c0.2,0.1,0.5,0,0.7-0.2c0.1-0.1,0.2-0.3,0.2-0.5c0-0.1,0-0.1-0.1-0.2l-3.1-7.1l-5.2,6.2
		L489.7,167.7z"/>
</g>
<g class="st2">
	<path class="st3" d="M564.6,25.7L546,39.5l-2.2-2.9l18.6-13.9L564.6,25.7z"/>
	<path class="st3" d="M567.6,29.6L549,43.5l-2.2-2.9l18.6-13.9L567.6,29.6z"/>
	<path class="st3" d="M547.9,44.3l-1.8,1.4l-5.2-6.9l1.8-1.4L547.9,44.3z"/>
	<path class="st3" d="M537.3,46.9c1.4,1.9,4.1,2.3,6,0.9l1.6-1.2l-5.2-6.9l-1.6,1.2c-0.9,0.7-1.5,1.7-1.7,2.8
		C536.4,44.8,536.6,45.9,537.3,46.9L537.3,46.9z"/>
	<path class="st3" d="M572,21.7c0.1-0.2,0.1-0.5-0.1-0.7c-0.1-0.1-0.3-0.2-0.4-0.3c-0.1,0-0.1,0-0.2,0l-7.6,1.4l4.8,6.5L572,21.7z"
		/>
</g>
<g class="st2">
	<path class="st3" d="M265.9,60.1l16.4-16.4l2.6,2.6l-16.4,16.4L265.9,60.1z"/>
	<path class="st3" d="M262.4,56.6l16.4-16.4l2.6,2.6L265,59.1L262.4,56.6z"/>
	<path class="st3" d="M279.7,39.2l1.6-1.6l6.1,6.1l-1.6,1.6L279.7,39.2z"/>
	<path class="st3" d="M289.9,35.2c-1.7-1.7-4.4-1.7-6.1,0l-1.4,1.4l6.1,6.1l1.4-1.4c0.8-0.8,1.3-1.9,1.3-3S290.7,36,289.9,35.2
		L289.9,35.2z"/>
	<path class="st3" d="M259.2,65c-0.1,0.2,0,0.5,0.2,0.7c0.1,0.1,0.3,0.2,0.5,0.2c0.1,0,0.1,0,0.2,0l7.3-2.4l-5.7-5.7L259.2,65z"/>
</g>
<g>
	<path class="st1" d="M399.8,45.4l21.4,8.9l-1.4,3.4l-21.4-8.9L399.8,45.4z"/>
	<path class="st1" d="M401.7,40.8l21.4,8.9l-1.4,3.4l-21.4-8.9L401.7,40.8z"/>
	<path class="st1" d="M424.3,50.2l2.1,0.9l-3.3,7.9l-2.1-0.9L424.3,50.2z"/>
	<path class="st1" d="M431.9,58c0.9-2.2-0.1-4.7-2.3-5.6l-1.9-0.8l-3.3,8l1.9,0.8c1.1,0.5,2.3,0.4,3.3,0
		C430.6,59.9,431.5,59.1,431.9,58L431.9,58z"/>
	<path class="st1" d="M392.7,41c-0.3,0-0.5,0.2-0.6,0.4c-0.1,0.2-0.1,0.4,0,0.5c0,0.1,0.1,0.1,0.1,0.2l5,5.8l3.1-7.5L392.7,41z"/>
</g>
<g class="st2">
	<path class="st3" d="M401.6,50.8l21.4,8.9l-1.4,3.4l-21.4-8.9L401.6,50.8z"/>
	<path class="st3" d="M403.5,46.2l21.4,8.9l-1.4,3.4l-21.4-8.9L403.5,46.2z"/>
	<path class="st3" d="M426.2,55.7l2.1,0.9l-3.3,7.9l-2.1-0.9L426.2,55.7z"/>
	<path class="st3" d="M433.7,63.5c0.9-2.2-0.1-4.7-2.3-5.6l-1.9-0.8l-3.3,8l1.9,0.8c1.1,0.5,2.3,0.4,3.3,0S433.3,64.6,433.7,63.5
		L433.7,63.5z"/>
	<path class="st3" d="M394.5,46.5c-0.3,0-0.5,0.2-0.6,0.4c-0.1,0.2-0.1,0.4,0,0.5c0,0.1,0.1,0.1,0.1,0.2l5,5.8l3.1-7.5L394.5,46.5z"
		/>
</g>
</svg>
