<?xml version="1.0" encoding="utf-8"?>
<!-- Generator: Adobe Illustrator 26.0.1, SVG Export Plug-In . SVG Version: 6.00 Build 0)  -->
<svg version="1.1" id="Calque_1" xmlns="http://www.w3.org/2000/svg" xmlns:xlink="http://www.w3.org/1999/xlink" x="0px" y="0px"
	 viewBox="0 0 599 834" style="enable-background:new 0 0 599 834;" xml:space="preserve">
<style type="text/css">
	.st0{fill:#488286;}
	.st1{opacity:0.66;}
	.st2{fill:#005F96;}
	.st3{fill:#0B4BA0;}
	.st4{fill:#C5E7E2;}
	.st5{fill:#29ABE2;}
	.st6{fill:#00A99D;}
	.st7{fill:#FFFFFF;}
	.st8{opacity:0.68;fill:#005F96;enable-background:new    ;}
	.st9{font-family:'PumpkinCheesecakeRegular';}
	.st10{font-size:102.7839px;}
</style>
<g>
	<path class="st0" d="M197.5,596.2c5.1,0,9.8,1.7,13.7,4.7c3.4,2.6,7.8-0.4,7.8-5.2V406.1h-43v176.5c0,9.5,7.5,16.7,15.4,14.4
		C193.3,596.5,195.4,596.2,197.5,596.2z"/>
</g>
<g class="st1">
	<path class="st2" d="M389.4,275.6h-49V79.7c0-7.5-6.2-13.7-13.7-13.7h-45.1c-7.5,0-13.7,6.2-13.7,13.7v195.9h-49
		c-12.9,0-23.5,10.6-23.5,23.5v3.9c0,12.9,10.6,23.5,23.5,23.5h170.4c12.9,0,23.5-10.6,23.5-23.5v-3.9
		C412.9,286.2,402.3,275.6,389.4,275.6z M301.5,147.6c-6.3,0-11.4-13.2-11.4-29.4s5.1-29.4,11.4-29.4s11.4,13.2,11.4,29.4
		S307.8,147.6,301.5,147.6z"/>
</g>
<g>
	<path class="st3" d="M261.4,772.5h-20.1c-8,0-14.4-6.5-14.4-14.4V406.2H268v359.7C268,769.6,265.1,772.5,261.4,772.5z"/>
</g>
<g>
	<path class="st4" d="M311.3,700H301c-6.7,0-12.6-4.5-14.5-11c-0.9-3.2-2.2-5.2-3.8-6.7c-4.7-4.6-7.1-11.1-7.1-17.7l0.1-258.4H317
		v288.1C317,697.5,314.5,700,311.3,700z"/>
</g>
<g>
	<path class="st5" d="M344.4,723.9c5.1,0,9.8,2.9,13.7,7.9c3.4,4.3,7.8-0.7,7.8-8.6V406.3h-43.1v295c0,15.9,7.5,27.9,15.4,24.1
		C340.2,724.4,342.3,723.9,344.4,723.9z"/>
</g>
<g>
	<path class="st6" d="M400.2,609.9c1.7,0,3.5,0.2,5.1,0.5c4,0.7,7.6-2.4,7.6-6.4V406.2h-41.1v231.1l0,0
		C396.7,637.5,384.9,609.9,400.2,609.9z"/>
</g>
<g>
	<path class="st7" d="M381.9,271.1h-49V75.2c0-7.5-6.2-13.7-13.7-13.7h-45.1c-7.5,0-13.7,6.2-13.7,13.7v195.9h-49
		c-12.9,0-23.5,10.6-23.5,23.5v3.9c0,12.9,10.6,23.5,23.5,23.5h170.4c12.9,0,23.5-10.6,23.5-23.5v-3.9
		C405.4,281.7,394.8,271.1,381.9,271.1z M294,143.1c-6.3,0-11.4-13.2-11.4-29.4s5.1-29.4,11.4-29.4s11.4,13.2,11.4,29.4
		S300.3,143.1,294,143.1z"/>
</g>
<text transform="matrix(1 0 0 1 174.3491 389.0483)" class="st8 st9 st10">DRAW ME</text>
<text transform="matrix(1 0 0 1 169.0339 386.7184)" class="st7 st9 st10">DRAW ME</text>
</svg>
